<svg width="248" height="84" viewBox="0 0 248 84" fill="none" xmlns="http://www.w3.org/2000/svg">
<path d="M37.376 80.512C33.536 80.512 29.7813 80.2133 26.112 79.616C22.4427 79.0187 19.1573 78.2933 16.256 77.44C13.44 76.5867 11.1787 75.6907 9.47199 74.752C7.76533 73.8133 6.91199 72.96 6.91199 72.192C6.91199 70.0587 7.16799 67.072 7.67999 63.232C8.27733 59.392 8.57599 54.1013 8.57599 47.36V33.152C8.57599 27.52 8.78933 22.9547 9.21599 19.456C9.72799 15.872 10.24 13.0987 10.752 11.136H6.39999L-5.97537e-06 2.56001L1.02399 0.512009H11.264C15.2747 0.512009 18.4747 0.426676 20.864 0.256012C23.3387 0.0853475 25.8133 1.52588e-05 28.288 1.52588e-05C30.5067 1.52588e-05 32.9387 0.682681 35.584 2.04801C38.2293 3.41335 40.7467 5.16268 43.136 7.29601C45.6107 9.42934 47.616 11.648 49.152 13.952C50.7733 16.1707 51.584 18.1333 51.584 19.84V25.6C51.584 29.5253 50.944 33.024 49.664 36.096C48.4693 39.168 46.6773 41.5573 44.288 43.264C47.616 45.7387 50.048 48.3413 51.584 51.072C53.2053 53.7173 54.016 56.704 54.016 60.032V62.592C54.016 68.5653 52.5227 73.0453 49.536 76.032C46.6347 79.0187 42.5813 80.512 37.376 80.512ZM33.664 11.136C32.128 11.136 30.5067 11.2213 28.8 11.392C27.1787 11.4773 25.5147 11.648 23.808 11.904C23.2107 14.208 22.656 17.0667 22.144 20.48C21.7173 23.808 21.504 27.7333 21.504 32.256V34.688H29.312C31.1893 34.688 32.8533 34.432 34.304 33.92C35.7547 33.3227 36.864 32.1707 37.632 30.464C38.4853 28.7573 38.912 26.1973 38.912 22.784V17.664C38.912 15.104 38.528 13.3973 37.76 12.544C36.992 11.6053 35.6267 11.136 33.664 11.136ZM21.504 53.12C21.504 56.6187 21.4187 59.6907 21.248 62.336C21.0773 64.896 20.864 67.2427 20.608 69.376C22.7413 69.888 24.832 70.144 26.88 70.144C32.0853 70.144 35.6693 68.992 37.632 66.688C39.68 64.384 40.704 61.3547 40.704 57.6V55.552C40.704 50.944 39.7653 48.0427 37.888 46.848C36.0107 45.568 33.4933 44.928 30.336 44.928H21.504V53.12ZM89.485 81.408C87.437 81.408 84.9197 80.896 81.933 79.872C78.9463 78.7627 75.9597 77.3547 72.973 75.648C70.0717 73.856 67.6397 71.936 65.677 69.888C63.7143 67.7547 62.733 65.664 62.733 63.616C62.733 61.568 62.861 58.0267 63.117 52.992C63.4583 47.9573 63.629 41.9413 63.629 34.944C63.629 23.8507 69.6877 18.304 81.805 18.304C83.6823 18.304 85.8583 18.9013 88.333 20.096C90.8077 21.2053 93.197 22.6987 95.501 24.576C97.805 26.368 99.725 28.2453 101.261 30.208C102.797 32.1707 103.565 34.0053 103.565 35.712V46.208C103.565 53.12 99.725 56.576 92.045 56.576C89.6557 56.576 86.925 56.448 83.853 56.192C80.781 55.8507 78.0503 55.4667 75.661 55.04C75.5757 57.856 75.4903 60.416 75.405 62.72C75.405 64.9387 75.405 66.2187 75.405 66.56C75.405 67.9253 75.7463 68.9067 76.429 69.504C77.1117 70.1013 78.349 70.4 80.141 70.4C82.7863 70.4 85.645 70.016 88.717 69.248C91.8743 68.3947 94.6903 67.1573 97.165 65.536H99.085L105.997 76.032C104.376 77.568 101.944 78.848 98.701 79.872C95.5437 80.896 92.4717 81.408 89.485 81.408ZM76.045 39.04C76.045 39.7227 76.0023 40.7467 75.917 42.112C75.917 43.4773 75.917 45.0133 75.917 46.72C78.3917 46.976 81.2503 47.104 84.493 47.104C86.9677 47.104 88.6743 46.5067 89.613 45.312C90.637 44.032 91.149 42.112 91.149 39.552V32.64C91.149 31.7013 90.893 30.8907 90.381 30.208C89.869 29.5253 88.7597 29.184 87.053 29.184C83.6397 29.184 80.9517 29.9093 78.989 31.36C77.0263 32.7253 76.045 35.2853 76.045 39.04ZM158.676 81.664C156.628 80.9813 154.751 80.2987 153.044 79.616C151.337 78.848 149.716 78.0373 148.18 77.184C146.985 78.3787 145.535 79.36 143.828 80.128C142.207 80.8107 140.329 81.152 138.196 81.152C136.745 81.152 134.612 80.6827 131.796 79.744C129.065 78.8053 126.249 77.6107 123.348 76.16C120.447 74.624 117.972 72.96 115.924 71.168C113.961 69.2907 112.98 67.456 112.98 65.664C112.98 63.4453 112.98 61.4827 112.98 59.776C113.065 57.984 113.108 56.9173 113.108 56.576C113.108 51.5413 114.388 48 116.948 45.952C119.593 43.8187 123.263 42.752 127.956 42.752C130.345 42.752 132.905 42.9227 135.636 43.264C138.367 43.6053 140.585 43.9893 142.292 44.416C142.377 42.0267 142.42 39.7653 142.42 37.632C142.505 35.4133 142.548 33.7493 142.548 32.64C142.548 31.7013 142.292 31.0187 141.78 30.592C141.268 30.1653 140.329 29.952 138.964 29.952C135.636 29.952 132.82 30.208 130.516 30.72C128.212 31.232 126.036 32.0853 123.988 33.28H121.556L113.236 21.12L114.26 19.072H135.636C137.343 19.072 139.263 19.7547 141.396 21.12C143.615 22.4 145.791 24.0213 147.924 25.984C150.057 27.9467 151.807 29.952 153.172 32C154.537 34.048 155.22 35.84 155.22 37.376C155.22 40.192 155.135 43.52 154.964 47.36C154.793 51.2 154.623 55.1253 154.452 59.136C154.281 63.0613 154.196 66.6453 154.196 69.888C154.196 72.448 154.623 74.24 155.476 75.264C156.329 76.2027 157.951 77.1413 160.34 78.08L158.676 81.664ZM125.652 65.664C125.652 67.7973 126.036 69.1627 126.804 69.76C127.572 70.272 128.511 70.528 129.62 70.528C133.119 70.528 136.02 69.632 138.324 67.84C140.713 65.9627 141.908 63.0613 141.908 59.136C141.908 58.368 141.908 57.4293 141.908 56.32C141.993 55.2107 142.036 53.9733 142.036 52.608C141.097 52.352 139.945 52.1813 138.58 52.096C137.215 52.0107 135.977 51.968 134.868 51.968C131.796 51.968 129.492 52.6507 127.956 54.016C126.42 55.3813 125.652 57.7707 125.652 61.184V65.664ZM189.535 83.456C182.196 81.0667 176.906 79.0187 173.663 77.312C170.42 75.52 168.799 74.24 168.799 73.472C168.799 72.5333 168.927 70.912 169.183 68.608C169.524 66.304 169.695 62.72 169.695 57.856V41.984C169.695 40.2773 169.78 38.272 169.951 35.968C170.122 33.5787 170.378 31.5733 170.719 29.952H165.983L159.327 21.12L160.223 19.072H172.255C172.682 19.072 173.45 19.712 174.559 20.992C175.754 22.1867 176.948 23.5093 178.143 24.96C179.508 22.7413 181.386 21.12 183.775 20.096C186.25 19.072 188.852 18.56 191.583 18.56C192.948 18.56 193.972 18.6453 194.655 18.816L201.055 27.776L200.031 29.312C194.058 29.2267 189.62 30.3787 186.719 32.768C183.818 35.1573 182.367 39.552 182.367 45.952V59.648C182.367 63.9147 182.239 67.2427 181.983 69.632C181.812 71.936 181.727 73.472 181.727 74.24C181.727 74.752 181.898 75.2213 182.239 75.648C182.58 75.9893 183.391 76.416 184.671 76.928C186.036 77.44 188.17 78.2933 191.071 79.488L189.535 83.456ZM228.705 81.664C226.657 81.664 224.182 81.152 221.281 80.128C218.38 79.104 215.564 77.7387 212.833 76.032C210.102 74.3253 207.798 72.3627 205.921 70.144C204.129 67.9253 203.233 65.664 203.233 63.36C203.233 62.336 203.361 59.3493 203.617 54.4C203.958 49.4507 204.129 43.264 204.129 35.84C204.129 29.8667 205.878 25.472 209.377 22.656C212.876 19.84 218.124 18.432 225.121 18.432C227.169 18.432 229.43 19.072 231.905 20.352C234.465 21.632 236.897 23.296 239.201 25.344C241.505 27.392 243.382 29.568 244.833 31.872C246.369 34.0907 247.137 36.1813 247.137 38.144C247.137 41.3867 247.052 44.8853 246.881 48.64C246.796 52.3947 246.753 57.216 246.753 63.104C246.753 68.5653 245.26 73.0453 242.273 76.544C239.286 79.9573 234.764 81.664 228.705 81.664ZM220.513 70.784C225.206 70.784 228.62 69.8027 230.753 67.84C232.972 65.8773 234.081 62.976 234.081 59.136C234.081 56.4053 234.124 53.3333 234.209 49.92C234.294 46.4213 234.38 43.2213 234.465 40.32C234.55 37.3333 234.593 35.2427 234.593 34.048C234.593 32.5973 234.337 31.5307 233.825 30.848C233.313 30.08 232.289 29.696 230.753 29.696C226.145 29.696 222.604 30.5067 220.129 32.128C217.74 33.664 216.545 36.608 216.545 40.96C216.545 49.152 216.46 55.3387 216.289 59.52C216.118 63.616 216.033 66.3893 216.033 67.84C216.033 69.8027 217.526 70.784 220.513 70.784Z" fill="#FFF9EA"/>
</svg>
